<?xml version="1.0" encoding="utf-8"?>
<svg viewBox="181.629 79.417 108.312 82.803" width="108.312" height="108.312" xmlns="http://www.w3.org/2000/svg">
  <linearGradient id="grad-icon" x1="0%" y1="0%" x2="100%" y2="0%">
    <stop offset="0" stop-color="#06b6d4" stop-opacity="1"/>
    <stop offset="1" stop-color="#3b82f6" stop-opacity="1"/>
  </linearGradient>
  <path d="M 263.98 113.927 C 263.581 113.697 263.251 113.129 263.251 112.666 L 263.251 96.438 C 263.251 95.977 262.925 95.41 262.525 95.18 L 245.56 85.385 C 245.161 85.154 244.507 85.154 244.106 85.385 L 230.052 93.499 C 229.654 93.729 228.999 93.729 228.599 93.499 L 214.543 85.385 C 214.146 85.155 213.49 85.155 213.09 85.385 L 196.125 95.18 C 195.727 95.41 195.398 95.977 195.398 96.438 L 195.398 116.028 C 195.398 116.49 195.726 117.058 196.125 117.288 L 210.181 125.402 C 210.581 125.632 210.909 126.2 210.909 126.661 L 210.909 142.888 C 210.909 143.349 211.235 143.917 211.636 144.147 L 228.6 153.943 C 229 154.173 229.655 154.173 230.053 153.943 L 244.109 145.828 C 244.508 145.599 245.163 145.599 245.563 145.828 L 259.617 153.943 C 260.016 154.173 260.671 154.173 261.071 153.943 L 278.034 144.147 C 278.434 143.917 278.761 143.349 278.761 142.888 L 278.761 123.3 C 278.761 122.838 278.435 122.271 278.034 122.04 L 263.98 113.927 Z M 245.563 120.36 C 245.163 120.591 244.508 120.591 244.109 120.36 L 235.877 115.607 C 235.479 115.377 235.479 114.998 235.877 114.768 L 244.113 110.011 C 244.511 109.781 245.166 109.781 245.567 110.011 L 253.795 114.766 C 254.194 114.997 254.194 115.375 253.795 115.606 L 245.563 120.36 Z M 228.6 118.967 C 229 118.737 229.655 118.737 230.053 118.969 L 238.286 123.72 C 238.685 123.952 238.685 124.33 238.286 124.56 L 230.049 129.316 C 229.651 129.546 228.995 129.546 228.594 129.316 L 220.367 124.562 C 219.967 124.331 219.967 123.953 220.367 123.721 L 228.6 118.967 Z M 213.091 92.107 C 213.491 91.877 214.147 91.877 214.544 92.107 L 222.778 96.859 C 223.176 97.09 223.176 97.469 222.778 97.7 L 214.542 102.454 C 214.143 102.685 213.488 102.685 213.089 102.454 L 204.859 97.701 C 204.46 97.47 204.46 97.092 204.859 96.861 L 213.091 92.107 Z M 201.22 103.164 C 201.22 102.702 201.548 102.513 201.949 102.744 L 213.087 109.178 C 213.487 109.409 214.142 109.409 214.541 109.179 L 244.107 92.107 C 244.508 91.877 245.162 91.877 245.561 92.107 L 256.706 98.541 C 257.103 98.77 257.432 99.337 257.432 99.8 L 257.432 109.303 C 257.432 109.764 257.105 109.954 256.706 109.722 L 245.567 103.288 C 245.166 103.057 244.512 103.057 244.113 103.287 L 214.544 120.36 C 214.147 120.591 213.491 120.591 213.091 120.36 L 201.949 113.927 C 201.549 113.697 201.22 113.13 201.22 112.667 L 201.22 103.164 Z M 217.458 140.788 C 217.058 140.558 216.731 139.991 216.731 139.527 L 216.731 130.024 C 216.731 129.562 217.057 129.374 217.458 129.606 L 228.595 136.039 C 228.996 136.271 229.652 136.271 230.05 136.039 L 259.617 118.967 C 260.016 118.737 260.671 118.737 261.071 118.967 L 272.214 125.4 C 272.614 125.63 272.941 126.198 272.941 126.66 L 272.941 136.165 C 272.941 136.626 272.615 136.815 272.214 136.584 L 261.075 130.15 C 260.675 129.919 260.021 129.919 259.622 130.149 L 230.053 147.221 C 229.655 147.452 229 147.452 228.6 147.221 L 217.458 140.788 Z M 251.382 142.468 C 250.981 142.238 250.981 141.86 251.382 141.63 L 259.619 136.872 C 260.02 136.642 260.674 136.642 261.074 136.873 L 269.303 141.627 C 269.704 141.857 269.704 142.236 269.303 142.467 L 261.07 147.221 C 260.67 147.452 260.015 147.452 259.616 147.221 L 251.382 142.468 Z" fill="url(#grad-icon)"/>
</svg>
