<?xml version="1.0" encoding="utf-8"?>
<svg viewBox="125.51 163.246 87.4466 16.892" xmlns="http://www.w3.org/2000/svg">
  <path d="M 132.857 165.689 Q 132.185 165.279 131.545 165.279 Q 130.512 165.279 129.282 165.607 L 128.396 165.82 Q 128.003 165.919 127.79 165.919 Q 127.298 165.919 127.298 165.558 Q 127.298 165.345 127.65 165.025 Q 128.003 164.705 128.593 164.41 Q 130.053 163.688 131.758 163.688 Q 134.202 163.688 134.891 164.525 Q 135.088 164.754 135.088 165.164 Q 135.055 166.755 133.612 173.627 Q 135.547 172.84 135.981 172.331 Q 136.416 171.823 136.662 171.823 Q 136.908 171.823 136.908 172.331 Q 136.908 172.84 136.605 173.217 Q 136.301 173.594 135.653 174.07 Q 135.006 174.545 133.284 175.283 Q 133.152 175.939 132.792 176.743 Q 131.562 180.138 128.774 180.138 Q 127.412 180.138 126.461 179.547 Q 125.51 178.957 125.51 177.727 Q 125.51 177.284 125.961 176.89 Q 126.412 176.497 127.273 176.062 Q 128.134 175.628 130.627 174.742 Q 130.725 174.168 130.791 173.668 Q 130.856 173.168 130.938 172.807 Q 131.283 170.462 132.3 167.28 Q 132.595 166.378 132.857 165.689 Z M 127.675 178.596 Q 127.675 178.596 127.921 178.727 Q 128.167 178.858 128.61 178.867 Q 129.052 178.875 129.282 178.67 Q 129.512 178.465 129.782 178.006 Q 130.053 177.546 130.315 176.398 Q 129.462 176.694 128.864 176.89 Q 128.265 177.087 127.896 177.251 Q 127.527 177.415 127.355 177.563 Q 127.183 177.71 127.183 177.924 Q 127.183 178.334 127.675 178.596 Z M 141.106 168.723 Q 141.106 167.624 142.812 167.624 Q 143.238 167.624 143.345 167.903 Q 143.451 168.182 143.451 168.756 Q 143.451 169.56 143.091 171.249 Q 142.73 172.938 142.746 173.528 Q 142.746 173.807 142.927 173.807 Q 143.173 173.807 143.533 173.496 Q 143.894 173.184 144.255 172.815 Q 144.616 172.446 144.919 172.134 Q 145.223 171.823 145.337 171.823 Q 145.567 171.823 145.567 172.38 Q 145.567 173.528 144.435 174.594 Q 142.533 175.71 142.025 175.71 Q 141.975 175.71 141.943 175.693 Q 141.319 175.693 141.065 175.283 Q 140.811 174.873 140.745 174.25 Q 140.417 174.857 139.843 175.291 Q 139.269 175.726 138.531 175.726 Q 137.236 175.726 136.539 175.234 Q 135.842 174.742 135.842 173.774 Q 135.842 173.348 135.965 172.987 Q 136.088 172.626 136.367 172.102 L 136.842 168.067 Q 137.351 167.674 138.302 167.674 Q 139.056 167.674 139.155 168.658 Q 139.237 169.461 139.081 170.093 Q 138.925 170.724 138.663 171.683 Q 138.4 172.643 138.4 173.381 Q 138.4 173.971 139.138 173.971 Q 139.942 173.971 140.532 172.561 Q 140.991 171.478 141.155 170.15 Q 141.139 170.019 141.131 169.814 Q 141.123 169.609 141.114 169.412 Q 141.106 169.215 141.106 169.018 Z M 148.485 167.698 Q 148.485 167.698 149.035 167.694 Q 149.584 167.69 150.125 168.108 Q 150.667 168.526 150.667 169.305 Q 150.667 170.084 150.199 170.634 Q 149.732 171.183 149.059 171.413 Q 149.535 171.905 149.92 172.413 Q 150.306 172.922 150.306 173.479 Q 150.306 174.578 149.437 175.177 Q 148.567 175.775 147.018 175.775 Q 145.468 175.775 144.697 175.16 Q 143.926 174.545 143.926 173.766 Q 143.926 172.987 144.312 172.348 Q 144.697 171.708 145.14 171.708 Q 145.402 171.708 145.517 171.897 Q 145.632 172.085 145.943 172.987 Q 146.058 173.315 146.321 173.61 Q 146.927 174.283 148.239 174.283 Q 148.043 173.66 147.608 173.209 Q 147.173 172.758 146.747 172.331 Q 146.321 171.905 145.993 171.421 Q 145.665 170.937 145.665 170.281 Q 145.665 169.1 146.55 168.362 Q 147.387 167.706 148.485 167.698 Z M 148.42 170.74 Q 149.076 170.035 149.076 169.609 Q 149.076 169.412 148.936 169.256 Q 148.797 169.1 148.535 169.1 Q 148.272 169.1 148.034 169.166 Q 147.797 169.232 147.649 169.264 Q 147.649 169.888 148.42 170.74 Z M 152.053 174.75 Q 152.053 174.75 151.958 174.533 Q 151.864 174.316 151.782 173.733 Q 151.7 173.151 151.7 172.102 Q 151.7 171.052 152.094 169.264 L 151.356 169.264 Q 151.159 169.264 151.159 169.1 Q 151.159 168.707 151.233 168.453 Q 151.306 168.198 151.585 167.87 L 151.979 167.87 Q 152.208 167.87 152.471 167.854 Q 153.258 165.328 154.078 165.328 Q 154.734 165.345 154.996 166.165 Q 155.062 166.394 155.144 166.657 L 154.472 167.838 Q 155.62 167.87 155.923 167.87 Q 156.226 167.87 156.251 167.928 Q 156.276 167.985 156.276 168.1 Q 156.276 168.395 156.136 168.838 Q 155.997 169.281 155.816 169.264 L 154.176 169.182 Q 153.832 171.183 153.832 172.495 Q 153.832 173.807 154.209 173.807 Q 154.521 173.807 155.341 173.291 Q 156.161 172.774 156.522 172.298 Q 156.882 171.823 157.112 171.823 Q 157.342 171.823 157.342 172.38 Q 157.342 172.938 156.948 173.52 Q 156.554 174.102 155.956 174.586 Q 155.357 175.07 154.627 175.382 Q 153.898 175.693 153.356 175.693 Q 152.815 175.693 152.528 175.439 Q 152.241 175.185 152.053 174.75 Z M 158.801 172.184 Q 158.801 173.61 160.015 173.61 Q 161.343 173.61 161.802 172.692 Q 161.966 172.364 161.966 171.847 Q 161.966 171.331 161.72 170.888 Q 161.31 170.183 160.31 169.33 Q 158.654 167.92 158.654 166.403 Q 158.654 164.886 159.605 164.066 Q 160.556 163.246 161.786 163.246 Q 163.016 163.246 163.738 163.869 Q 164.459 164.492 164.459 165.738 Q 164.459 166.558 163.91 167.165 Q 163.36 167.772 162.458 167.92 Q 162.868 168.264 163.278 168.625 Q 163.672 168.986 164 169.412 Q 164.722 170.38 164.722 171.724 Q 164.722 172.659 164.287 173.414 Q 163.852 174.168 163.155 174.685 Q 162.458 175.201 161.589 175.48 Q 160.72 175.759 159.966 175.759 Q 158.358 175.759 157.473 175.021 Q 156.44 174.184 156.44 172.61 Q 156.44 171.577 157.112 170.609 Q 157.784 169.642 158.539 169.642 Q 159.129 169.642 159.129 170.002 Q 159.129 170.527 158.965 171.044 Q 158.801 171.56 158.801 172.184 Z M 161.983 167.526 Q 162.918 166.591 162.918 165.574 Q 162.918 165.263 162.59 165.05 Q 162.229 164.853 161.835 164.853 Q 160.95 164.853 160.556 165.427 Q 160.753 166.132 161.138 166.624 Q 161.524 167.116 161.983 167.526 Z M 171.331 170.134 Q 171.331 169.543 170.634 169.543 Q 169.937 169.543 169.264 170.617 Q 168.592 171.692 168.428 172.807 Q 168.461 173.184 168.494 173.561 Q 168.526 173.938 168.526 174.299 Q 168.526 175.168 167.952 175.48 Q 167.69 175.628 167.452 175.759 Q 167.214 175.89 166.903 175.89 Q 166.591 175.89 166.353 175.472 Q 166.116 175.054 166.116 174.168 Q 166.116 171.692 166.476 169.871 Q 167.034 167.05 168.69 163.836 Q 168.92 163.393 169.363 163.401 Q 169.806 163.41 170.084 164.016 Q 170.363 164.623 170.355 165.033 Q 170.347 165.443 170.224 165.829 Q 170.101 166.214 169.912 166.583 Q 169.724 166.952 169.486 167.337 Q 169.248 167.723 169.018 168.166 L 168.772 169.346 Q 169.412 168.28 170.494 167.92 Q 170.888 167.788 171.364 167.788 Q 172.479 167.788 173.053 168.289 Q 173.627 168.789 173.627 169.699 Q 173.627 170.609 173.389 171.544 Q 173.151 172.479 173.045 172.881 Q 172.938 173.282 172.938 173.545 Q 172.938 173.807 173.118 173.807 Q 173.364 173.807 173.725 173.496 Q 174.086 173.184 174.447 172.815 Q 174.808 172.446 175.111 172.134 Q 175.414 171.823 175.529 171.823 Q 175.759 171.823 175.759 172.38 Q 175.759 173.528 174.627 174.594 Q 172.725 175.71 172.2 175.71 Q 172.151 175.71 172.134 175.693 Q 170.822 175.693 170.822 173.594 Q 170.822 172.692 170.995 171.938 Q 171.167 171.183 171.249 170.839 Q 171.331 170.494 171.331 170.134 Z M 185.008 171.774 Q 185.303 171.774 185.303 172.528 Q 185.303 172.938 184.959 173.52 Q 184.614 174.102 184.065 174.586 Q 183.516 175.07 182.843 175.382 Q 182.171 175.693 181.531 175.693 Q 180.662 175.693 180.367 174.168 Q 179.94 174.873 179.252 175.324 Q 178.563 175.775 177.407 175.775 Q 176.25 175.775 175.545 175.054 Q 174.84 174.332 174.856 173.299 Q 174.856 170.511 176.71 168.904 Q 177.497 168.231 178.177 168.018 Q 178.858 167.805 179.612 167.805 Q 180.367 167.805 180.842 168.067 Q 181.072 167.592 181.367 167.592 Q 181.941 167.592 182.458 168.092 Q 182.974 168.592 182.974 169.035 Q 182.745 169.576 182.302 170.33 Q 182.171 171.085 182.171 172.446 Q 182.171 173.807 182.515 173.807 Q 182.942 173.807 184.582 172.102 Q 184.877 171.774 185.008 171.774 Z M 177.267 172.758 Q 177.267 174.02 178.202 174.02 Q 179.202 174.004 179.858 172.954 Q 180.088 172.594 180.236 172.069 Q 180.236 170.232 180.564 168.92 Q 179.235 169.182 178.251 170.199 Q 177.267 171.216 177.267 172.758 Z M 186.877 172.889 L 186.976 174.89 Q 186.976 175.283 186.566 175.595 Q 186.156 175.906 185.451 175.906 Q 185.041 175.906 184.885 175.48 Q 184.729 175.054 184.729 174.234 Q 184.729 172.512 184.901 171.536 Q 185.073 170.56 185.582 169.56 Q 184.827 168.838 184.827 168.313 Q 184.827 167.214 186.008 167.214 Q 186.615 167.214 187.074 167.854 Q 187.402 168.297 187.55 168.887 Q 187.779 168.969 188.124 168.969 Q 188.599 168.969 189.223 168.658 L 189.649 168.444 Q 189.846 168.346 189.993 168.346 Q 190.469 168.346 190.945 169.74 Q 190.797 170.38 190.625 170.97 Q 190.453 171.56 190.223 172.397 Q 189.993 173.233 189.985 173.52 Q 189.977 173.807 190.157 173.807 Q 190.403 173.807 190.764 173.496 Q 191.125 173.184 191.486 172.815 Q 191.847 172.446 192.15 172.134 Q 192.453 171.823 192.568 171.823 Q 192.798 171.823 192.798 172.38 Q 192.798 173.512 191.806 174.611 Q 190.813 175.71 189.534 175.693 Q 188.78 175.693 188.403 175.086 Q 188.025 174.48 188.009 173.61 Q 188.009 171.888 188.78 170.347 Q 188.419 170.494 187.968 170.494 Q 187.517 170.494 187.32 170.462 Q 187.173 171.085 187.025 171.716 Q 186.877 172.348 186.877 172.889 Z M 195.799 173.856 Q 197.078 173.856 198.276 172.84 Q 198.718 172.462 198.997 172.143 Q 199.276 171.823 199.424 171.823 Q 199.653 171.823 199.653 172.282 Q 199.653 172.741 199.407 173.307 Q 199.161 173.873 198.587 174.414 Q 197.177 175.742 194.717 175.742 Q 192.765 175.742 192.06 174.332 Q 191.814 173.84 191.814 172.922 Q 191.814 172.003 192.175 171.011 Q 192.536 170.019 193.134 169.297 Q 193.733 168.576 194.52 168.174 Q 195.307 167.772 196.201 167.772 Q 197.095 167.772 197.579 168.215 Q 198.062 168.658 198.062 169.363 Q 198.062 170.068 197.71 170.519 Q 197.357 170.97 196.8 171.273 Q 196.242 171.577 195.561 171.815 Q 194.881 172.052 194.225 172.348 L 194.225 172.758 Q 194.241 173.348 194.717 173.594 Q 195.192 173.84 195.799 173.856 Z M 195.52 169.232 Q 194.668 169.232 194.34 171.216 Q 194.684 170.986 194.987 170.806 Q 195.291 170.626 195.52 170.462 Q 196.012 170.101 196.029 169.642 Q 196.029 169.232 195.52 169.232 Z" style="fill: rgb(51, 51, 51);" transform="matrix(1, 0, 0, 1, 1.4210854715202004e-14, 0)"/>
  <path d="M -0.386 -1.187 Q 0.429 -3.265 2.06 -4.631 Q 3.69 -5.996 5.605 -5.996 Q 7.521 -5.996 7.521 -3.877 Q 7.521 -1.757 6.155 -0.086 Q 4.79 1.585 3.404 1.544 Q 0.959 1.544 -0.386 -1.187 Z M 37.682 -7.496 Q 38.416 -7.496 38.416 -5.622 Q 38.416 -4.603 37.56 -3.156 Q 36.704 -1.709 35.339 -0.507 Q 33.974 0.696 32.303 1.47 Q 30.632 2.244 29.042 2.244 Q 26.882 2.244 26.148 -1.546 Q 25.089 0.206 23.377 1.327 Q 21.665 2.448 18.792 2.448 Q 15.919 2.448 14.166 0.655 Q 12.414 -1.138 12.454 -3.706 Q 12.454 -10.635 17.06 -14.629 Q 19.016 -16.3 20.707 -16.829 Q 22.399 -17.359 24.274 -17.359 Q 26.148 -17.359 27.33 -16.707 Q 27.901 -17.889 28.635 -17.889 Q 30.061 -17.889 31.345 -16.646 Q 32.629 -15.403 32.629 -14.303 Q 32.058 -12.958 30.958 -11.083 Q 30.632 -9.208 30.632 -5.825 Q 30.632 -2.443 31.487 -2.443 Q 32.547 -2.443 36.623 -6.681 Q 37.356 -7.496 37.682 -7.496 Z M 18.446 -5.051 Q 18.446 -1.913 20.769 -1.913 Q 23.255 -1.954 24.885 -4.562 Q 25.456 -5.459 25.822 -6.763 Q 25.822 -11.327 26.637 -14.588 Q 23.336 -13.936 20.891 -11.409 Q 18.446 -8.882 18.446 -5.051 Z M 38.189 -0.099 Q 38.189 -0.099 37.955 -0.639 Q 37.72 -1.179 37.517 -2.626 Q 37.313 -4.073 37.313 -6.681 Q 37.313 -9.29 38.291 -13.732 L 36.457 -13.732 Q 35.968 -13.732 35.968 -14.14 Q 35.968 -15.118 36.151 -15.749 Q 36.335 -16.381 37.028 -17.196 L 38.006 -17.196 Q 38.576 -17.196 39.228 -17.237 Q 41.185 -23.513 43.222 -23.513 Q 44.853 -23.473 45.505 -21.435 Q 45.668 -20.864 45.872 -20.212 L 44.201 -17.278 Q 47.054 -17.196 47.808 -17.196 Q 48.562 -17.196 48.623 -17.054 Q 48.684 -16.911 48.684 -16.626 Q 48.684 -15.892 48.337 -14.792 Q 47.991 -13.691 47.543 -13.732 L 43.467 -13.936 Q 42.611 -8.964 42.611 -5.703 Q 42.611 -2.443 43.549 -2.443 Q 44.323 -2.443 46.361 -3.726 Q 48.398 -5.01 49.295 -6.192 Q 50.192 -7.374 50.762 -7.374 Q 51.333 -7.374 51.333 -5.988 Q 51.333 -4.603 50.355 -3.156 Q 49.377 -1.709 47.889 -0.507 Q 46.401 0.696 44.588 1.47 Q 42.774 2.244 41.429 2.244 Q 40.084 2.244 39.371 1.613 Q 38.658 0.981 38.189 -0.099 Z" transform="matrix(0.24536101520061493, 0, 0, 0.2453630119562149, 200.3614531809308, 175.15529130630625)" style="fill: rgb(51, 51, 51); line-height: 52.1676px;"/>
</svg>
