<svg xmlns="http://www.w3.org/2000/svg" version="1.1" xlink="http://www.w3.org/1999/xlink" xmlns:svgjs="http://svgjs.com/svgjs" width="100%" height="100%" viewBox="1.7799999713897705 -68.08000183105469 531.5899658203125 69.77000427246094"><g fill="#262626"><path d="M41.6 -47.05L40.66 -67.42L2.25 -66.01L1.78 -45.64L9.58 -45.64L9.11 -57.47L17.56 -58.03L17.65 -9.11L12.11 -9.11L12.4 -0.38L31.74 -0.85L32.21 -9.3L25.64 -9.11L26.1 -58.5L33.9 -58.78L34.37 -46.11Z M66.72 -9.3L60.14 -9.11L60.61 -57.09L66.06 -57.56L65.31 -66.01L46.72 -66.01L46.25 -56.9L52.07 -57.09L52.16 -9.11L46.62 -9.11L46.9 -0.38L66.25 -0.85Z M111.65 -48.74L111.18 -66.95L72.77 -66.48L72.3 -57.37L78.13 -57.56L78.22 -8.08L72.68 -8.08L72.96 0.56L111.18 -0.38L110.71 -19.06L103.76 -19.06L103.76 -8.73L86.2 -8.08L86.39 -29.02L100.76 -29.86L100.76 -36.62L86.48 -36.62L86.67 -57.56L103.76 -57.94L104.7 -48.27Z M158.41 -47.89C158.41 -50.83 157.88 -53.51 156.82 -55.92C155.75 -58.33 154.31 -60.4 152.47 -62.14C150.64 -63.88 148.48 -65.22 145.97 -66.18C143.47 -67.13 140.79 -67.61 137.94 -67.61C134.44 -67.61 130.96 -67.59 127.52 -67.54C124.08 -67.49 120.6 -67.39 117.1 -67.23L117.57 -58.13L122.92 -58.31L123.01 -9.11L117.47 -9.11L117.75 -0.38L137.1 -0.85L137.57 -9.3L130.99 -9.11L131.18 -27.23L133.81 -27.23C137.32 -27.26 140.56 -27.63 143.55 -28.34C146.54 -29.04 149.14 -30.19 151.35 -31.79C153.55 -33.38 155.28 -35.5 156.54 -38.12C157.79 -40.75 158.41 -44.01 158.41 -47.89ZM149.77 -47.51C149.77 -44.79 149.34 -42.62 148.46 -40.99C147.58 -39.36 146.39 -38.12 144.89 -37.28C143.39 -36.43 141.66 -35.88 139.7 -35.61C137.75 -35.35 135.69 -35.21 133.53 -35.21L131.28 -35.21L131.46 -58.78L135.5 -58.78L138.51 -58.78C140.1 -58.78 141.59 -58.49 142.97 -57.91C144.34 -57.34 145.53 -56.55 146.53 -55.54C147.54 -54.54 148.33 -53.35 148.91 -51.98C149.49 -50.6 149.77 -49.11 149.77 -47.51Z M200.95 -47.05L200.01 -67.42L161.61 -66.01L161.14 -45.64L168.93 -45.64L168.46 -57.47L176.91 -58.03L177.01 -9.11L171.47 -9.11L171.75 -0.38L191.09 -0.85L191.56 -9.3L184.99 -9.11L185.46 -58.5L193.25 -58.78L193.72 -46.11Z M252.74 -59.44L252.08 -67.89L233.49 -67.89L233.02 -58.78L238.84 -58.97L238.84 -34.09C238.84 -32.74 238.83 -31.14 238.79 -29.27C238.76 -27.41 238.65 -25.49 238.47 -23.52C238.28 -21.55 237.96 -19.59 237.53 -17.65C237.09 -15.71 236.46 -13.98 235.65 -12.44C234.83 -10.91 233.79 -9.67 232.5 -8.73C231.22 -7.79 229.64 -7.32 227.76 -7.32C226.1 -7.32 224.71 -7.69 223.58 -8.43C222.46 -9.16 221.52 -10.13 220.79 -11.34C220.05 -12.54 219.48 -13.91 219.07 -15.45C218.67 -16.98 218.37 -18.55 218.18 -20.14C217.99 -21.74 217.89 -23.28 217.85 -24.77C217.82 -26.25 217.81 -27.58 217.81 -28.73C217.81 -33.55 217.92 -38.36 218.16 -43.15C218.39 -47.94 218.59 -52.74 218.75 -57.56L224.19 -58.03L223.44 -66.48L204.85 -66.48L204.38 -57.37L210.2 -57.56C210.04 -52.9 209.86 -48.26 209.66 -43.64C209.46 -39.02 209.36 -34.4 209.36 -29.77C209.36 -27.8 209.43 -25.65 209.59 -23.33C209.75 -21.02 210.05 -18.69 210.51 -16.36C210.96 -14.03 211.59 -11.78 212.41 -9.6C213.22 -7.43 214.29 -5.5 215.62 -3.83C216.95 -2.15 218.57 -0.81 220.48 0.19C222.39 1.19 224.66 1.69 227.29 1.69C230.36 1.69 232.98 1.13 235.16 0.02C237.33 -1.09 239.16 -2.57 240.65 -4.41C242.14 -6.26 243.32 -8.4 244.19 -10.82C245.07 -13.25 245.74 -15.78 246.21 -18.4C246.68 -21.03 246.99 -23.69 247.13 -26.36C247.27 -29.04 247.36 -31.55 247.39 -33.9L247.39 -58.97Z M300.54 -67.8L292.27 -67.99L292.18 -60.29C290.68 -62.73 288.92 -64.64 286.92 -66.01C284.92 -67.39 282.44 -68.08 279.5 -68.08C276.59 -68.08 274.01 -67.56 271.75 -66.51C269.5 -65.46 267.54 -64.06 265.89 -62.3C264.23 -60.55 262.84 -58.52 261.73 -56.2C260.62 -53.88 259.73 -51.45 259.05 -48.9C258.38 -46.35 257.9 -43.76 257.6 -41.13C257.3 -38.5 257.15 -36 257.15 -33.62C257.15 -31.52 257.32 -29.21 257.65 -26.69C257.97 -24.17 258.5 -21.64 259.22 -19.11C259.94 -16.57 260.86 -14.12 261.99 -11.76C263.12 -9.4 264.48 -7.3 266.1 -5.47C267.71 -3.64 269.58 -2.18 271.71 -1.08C273.84 0.02 276.25 0.56 278.94 0.56C282.44 0.56 285.47 -0.15 288.02 -1.57C290.57 -3 292.68 -4.88 294.34 -7.23C296 -9.58 297.23 -12.27 298.02 -15.31C298.82 -18.34 299.22 -21.47 299.22 -24.7L291.8 -24.7C291.65 -22.76 291.34 -20.81 290.89 -18.85C290.43 -16.89 289.72 -15.13 288.75 -13.55C287.78 -11.96 286.52 -10.67 284.97 -9.67C283.42 -8.67 281.5 -8.17 279.22 -8.17C277.34 -8.17 275.71 -8.62 274.34 -9.53C272.96 -10.44 271.78 -11.62 270.79 -13.08C269.81 -14.53 269 -16.19 268.37 -18.05C267.75 -19.92 267.25 -21.8 266.89 -23.71C266.53 -25.62 266.29 -27.47 266.17 -29.27C266.04 -31.07 265.98 -32.65 265.98 -33.99C265.98 -35.43 266.05 -37.07 266.19 -38.9C266.33 -40.73 266.59 -42.58 266.97 -44.46C267.34 -46.34 267.86 -48.18 268.54 -49.98C269.21 -51.78 270.06 -53.38 271.1 -54.79C272.13 -56.2 273.37 -57.33 274.83 -58.17C276.28 -59.02 278 -59.44 279.97 -59.44C281.29 -59.44 282.47 -59.21 283.54 -58.76C284.6 -58.31 285.56 -57.7 286.4 -56.93C287.25 -56.16 287.98 -55.27 288.61 -54.25C289.24 -53.23 289.78 -52.16 290.23 -51.04C290.68 -49.91 291.06 -48.75 291.36 -47.56C291.65 -46.37 291.9 -45.23 292.08 -44.13L299.5 -43.85Z M317.16 -5.35C317.16 -6.17 317 -6.94 316.69 -7.68C316.37 -8.41 315.94 -9.05 315.4 -9.6C314.85 -10.15 314.21 -10.58 313.47 -10.89C312.73 -11.21 311.96 -11.36 311.15 -11.36C310.33 -11.36 309.57 -11.21 308.85 -10.89C308.13 -10.58 307.5 -10.15 306.97 -9.6C306.44 -9.05 306.01 -8.41 305.7 -7.68C305.39 -6.94 305.23 -6.17 305.23 -5.35C305.23 -4.54 305.39 -3.77 305.7 -3.05C306.01 -2.33 306.44 -1.71 306.97 -1.17C307.5 -0.64 308.13 -0.22 308.85 0.09C309.57 0.41 310.33 0.56 311.15 0.56C311.96 0.56 312.73 0.41 313.47 0.09C314.21 -0.22 314.85 -0.64 315.4 -1.17C315.94 -1.71 316.37 -2.33 316.69 -3.05C317 -3.77 317.16 -4.54 317.16 -5.35Z M365.66 -67.8L357.39 -67.99L357.3 -60.29C355.8 -62.73 354.04 -64.64 352.04 -66.01C350.04 -67.39 347.56 -68.08 344.62 -68.08C341.71 -68.08 339.13 -67.56 336.88 -66.51C334.62 -65.46 332.67 -64.06 331.01 -62.3C329.35 -60.55 327.96 -58.52 326.85 -56.2C325.74 -53.88 324.85 -51.45 324.18 -48.9C323.5 -46.35 323.02 -43.76 322.72 -41.13C322.42 -38.5 322.27 -36 322.27 -33.62C322.27 -31.52 322.44 -29.21 322.77 -26.69C323.1 -24.17 323.62 -21.64 324.34 -19.11C325.06 -16.57 325.98 -14.12 327.11 -11.76C328.24 -9.4 329.61 -7.3 331.22 -5.47C332.83 -3.64 334.7 -2.18 336.83 -1.08C338.96 0.02 341.37 0.56 344.06 0.56C347.56 0.56 350.59 -0.15 353.14 -1.57C355.7 -3 357.8 -4.88 359.46 -7.23C361.12 -9.58 362.35 -12.27 363.14 -15.31C363.94 -18.34 364.34 -21.47 364.34 -24.7L356.92 -24.7C356.77 -22.76 356.46 -20.81 356.01 -18.85C355.55 -16.89 354.84 -15.13 353.87 -13.55C352.9 -11.96 351.64 -10.67 350.09 -9.67C348.54 -8.67 346.63 -8.17 344.34 -8.17C342.46 -8.17 340.84 -8.62 339.46 -9.53C338.08 -10.44 336.9 -11.62 335.91 -13.08C334.93 -14.53 334.12 -16.19 333.5 -18.05C332.87 -19.92 332.38 -21.8 332.02 -23.71C331.66 -25.62 331.41 -27.47 331.29 -29.27C331.16 -31.07 331.1 -32.65 331.1 -33.99C331.1 -35.43 331.17 -37.07 331.31 -38.9C331.45 -40.73 331.71 -42.58 332.09 -44.46C332.46 -46.34 332.99 -48.18 333.66 -49.98C334.33 -51.78 335.19 -53.38 336.22 -54.79C337.25 -56.2 338.5 -57.33 339.95 -58.17C341.41 -59.02 343.12 -59.44 345.09 -59.44C346.41 -59.44 347.6 -59.21 348.66 -58.76C349.72 -58.31 350.68 -57.7 351.52 -56.93C352.37 -56.16 353.11 -55.27 353.73 -54.25C354.36 -53.23 354.9 -52.16 355.35 -51.04C355.8 -49.91 356.18 -48.75 356.48 -47.56C356.78 -46.37 357.02 -45.23 357.21 -44.13L364.62 -43.85Z M408.99 -19.06L401.1 -19.53L400.64 -8.92L384.95 -9.3L385.42 -57.37L392.09 -57.66L392.09 -66.01L371.71 -66.01L371.43 -57.37L376.97 -57.37L376.88 -9.3L371.06 -9.48L371.53 -0.38L408.52 0.09Z M433.55 -9.3L426.98 -9.11L427.44 -57.09L432.89 -57.56L432.14 -66.01L413.55 -66.01L413.08 -56.9L418.9 -57.09L418.99 -9.11L413.45 -9.11L413.73 -0.38L433.08 -0.85Z M482.24 -67.8L473.97 -67.99L473.88 -60.29C472.38 -62.73 470.62 -64.64 468.62 -66.01C466.62 -67.39 464.14 -68.08 461.2 -68.08C458.29 -68.08 455.71 -67.56 453.46 -66.51C451.2 -65.46 449.25 -64.06 447.59 -62.3C445.93 -60.55 444.54 -58.52 443.43 -56.2C442.32 -53.88 441.43 -51.45 440.76 -48.9C440.08 -46.35 439.6 -43.76 439.3 -41.13C439 -38.5 438.85 -36 438.85 -33.62C438.85 -31.52 439.02 -29.21 439.35 -26.69C439.68 -24.17 440.2 -21.64 440.92 -19.11C441.64 -16.57 442.56 -14.12 443.69 -11.76C444.82 -9.4 446.19 -7.3 447.8 -5.47C449.41 -3.64 451.28 -2.18 453.41 -1.08C455.54 0.02 457.95 0.56 460.64 0.56C464.14 0.56 467.17 -0.15 469.72 -1.57C472.28 -3 474.38 -4.88 476.04 -7.23C477.7 -9.58 478.93 -12.27 479.72 -15.31C480.52 -18.34 480.92 -21.47 480.92 -24.7L473.5 -24.7C473.35 -22.76 473.04 -20.81 472.59 -18.85C472.13 -16.89 471.42 -15.13 470.45 -13.55C469.48 -11.96 468.22 -10.67 466.67 -9.67C465.12 -8.67 463.21 -8.17 460.92 -8.17C459.04 -8.17 457.42 -8.62 456.04 -9.53C454.66 -10.44 453.48 -11.62 452.49 -13.08C451.51 -14.53 450.7 -16.19 450.08 -18.05C449.45 -19.92 448.96 -21.8 448.6 -23.71C448.24 -25.62 447.99 -27.47 447.87 -29.27C447.74 -31.07 447.68 -32.65 447.68 -33.99C447.68 -35.43 447.75 -37.07 447.89 -38.9C448.03 -40.73 448.29 -42.58 448.67 -44.46C449.04 -46.34 449.57 -48.18 450.24 -49.98C450.91 -51.78 451.77 -53.38 452.8 -54.79C453.83 -56.2 455.08 -57.33 456.53 -58.17C457.99 -59.02 459.7 -59.44 461.67 -59.44C462.99 -59.44 464.18 -59.21 465.24 -58.76C466.3 -58.31 467.26 -57.7 468.1 -56.93C468.95 -56.16 469.69 -55.27 470.31 -54.25C470.94 -53.23 471.48 -52.16 471.93 -51.04C472.38 -49.91 472.76 -48.75 473.06 -47.56C473.36 -46.37 473.6 -45.23 473.79 -44.13L481.2 -43.85Z M533.37 -66.95L513.37 -67.42L512.8 -59.25L518.72 -58.5L501.82 -36.9L502 -57.09L507.45 -57.56L506.7 -66.01L488.11 -66.01L487.64 -56.9L493.46 -57.09L493.55 -9.11L488.01 -9.11L488.29 -0.38L507.64 -0.85L508.11 -9.3L501.53 -9.11L501.72 -32.3L517.97 -7.61L512.43 -7.61L513.18 1.03L532.52 0.09L532.05 -8.36L526.89 -8.08L509.05 -34.56L527.73 -58.03L532.62 -58.03Z"></path></g></svg>
