<svg xmlns="http://www.w3.org/2000/svg" viewBox="1.63 -60.31 399.69 61.37">
  <path d="M23.1-41.54h-7.19l.33-14.2H8.49L8-41.54H1.63v7.35h6.2c-.08 3.8-.15 7.6-.22 11.38-.07 3.78-.1 7.58-.1 11.38 0 1.69.26 3.27.79 4.74.53 1.47 1.29 2.75 2.27 3.85.98 1.11 2.17 1.98 3.59 2.62 1.41.63 3.01.95 4.77.95 1.36 0 2.7-.16 4-.49v-7.26c-.24.06-.47.08-.69.08h-.69c-.79 0-1.56-.11-2.29-.34-.73-.23-1.39-.57-1.96-1.02-.57-.45-1.03-1-1.37-1.66-.34-.65-.51-1.41-.51-2.28 0-3.7.04-7.37.11-11.02.06-3.64.14-7.29.22-10.93h7.18ZM58.02-5.55l-4.16-.33c.08-3.86.17-7.69.27-11.5.09-3.81.14-7.65.14-11.51 0-.95-.03-1.95-.08-3a24.52 24.52 0 0 0-.37-3.1c-.19-1.02-.45-2-.79-2.94a7.78 7.78 0 0 0-1.41-2.45c-.6-.69-1.33-1.25-2.21-1.67-.87-.42-1.91-.63-3.14-.63-.95 0-1.89.14-2.81.43-.93.28-1.8.67-2.61 1.16-.82.49-1.57 1.07-2.25 1.75-.68.68-1.25 1.42-1.71 2.21l-.25-23.18-12.65.41-.16 6.94 5.96.4.24 45.05-4 .17V.24L40.15.08l-.41-6.61h-3.59c.06-2.88.11-5.75.15-8.61.04-2.85.13-5.72.26-8.61.03-.6.1-1.3.21-2.1.1-.8.27-1.63.48-2.47.22-.84.5-1.67.84-2.49.34-.81.75-1.53 1.23-2.16.47-.63 1.03-1.14 1.67-1.53.64-.4 1.37-.59 2.18-.59.82 0 1.49.19 2.02.57.53.38.95.86 1.25 1.45.3.58.51 1.23.63 1.94.12.7.18 1.4.18 2.08 0 3.78-.03 7.53-.1 11.26-.07 3.73-.14 7.48-.22 11.26l-3.6.41.17 6.53 13.71.65Zm28.2-19.18c0-2.47-.11-4.79-.35-6.96-.23-2.16-.77-4.03-1.63-5.63-.86-1.59-2.11-2.84-3.77-3.75-1.66-.91-3.93-1.37-6.82-1.37-1.68 0-3.17.32-4.44.96a10.73 10.73 0 0 0-3.31 2.53c-.92 1.05-1.69 2.27-2.31 3.65-.61 1.39-1.09 2.83-1.44 4.33-.36 1.5-.61 3.01-.76 4.53-.15 1.52-.22 2.94-.22 4.24 0 1.44.05 3.01.16 4.69.11 1.69.32 3.37.63 5.04.32 1.68.77 3.3 1.37 4.86.6 1.56 1.37 2.94 2.33 4.14.95 1.2 2.11 2.16 3.48 2.88C70.52.13 72.16.49 74.06.49c1.82 0 3.41-.4 4.78-1.2 1.36-.81 2.51-1.85 3.46-3.13.96-1.27 1.72-2.7 2.29-4.28.57-1.58.98-3.14 1.22-4.69h-7.1c-.08.7-.23 1.45-.45 2.24-.21.79-.52 1.52-.91 2.18-.4.67-.9 1.23-1.51 1.68-.62.45-1.34.67-2.19.67-.79 0-1.46-.21-2.02-.63-.55-.42-1.02-.98-1.4-1.67-.39-.7-.69-1.47-.92-2.33-.23-.86-.41-1.73-.53-2.61a34.284 34.284 0 0 1-.35-4.59l17.55-.33c.16-2.12.24-4.3.24-6.53Zm-7.1-2.36c0 1.08-.08 2.2-.24 3.34H68.35c0-.68.02-1.45.06-2.32.04-.87.12-1.77.22-2.68.11-.91.29-1.81.53-2.69.25-.88.59-1.67 1.02-2.35.44-.68.98-1.23 1.64-1.65.65-.42 1.45-.63 2.4-.63 1.09 0 1.96.31 2.62.94.65.62 1.15 1.4 1.49 2.32.34.93.55 1.91.65 2.94.09 1.03.14 1.96.14 2.78Zm37.26 4.89c0-1.28-.09-2.68-.25-4.2s-.43-3.04-.82-4.55c-.38-1.51-.87-2.97-1.48-4.39-.62-1.41-1.39-2.66-2.33-3.75-.94-1.09-2.04-1.96-3.31-2.61-1.26-.66-2.72-.98-4.38-.98-1.82 0-3.42.38-4.78 1.14-1.36.76-2.53 1.78-3.53 3.04-.99 1.27-1.82 2.71-2.49 4.35-.66 1.63-1.19 3.31-1.59 5.04a40.39 40.39 0 0 0-.83 5.12c-.17 1.68-.25 3.21-.25 4.57 0 1.3.08 2.72.23 4.24.15 1.52.4 3.03.77 4.53.37 1.5.87 2.94 1.49 4.33.63 1.38 1.4 2.6 2.33 3.65.92 1.04 2.02 1.89 3.3 2.53 1.28.64 2.76.96 4.45.96 1.8 0 3.37-.38 4.71-1.15 1.35-.76 2.53-1.76 3.53-3.02 1.01-1.25 1.85-2.68 2.51-4.3.67-1.62 1.21-3.28 1.61-4.98.41-1.7.7-3.38.86-5.04.16-1.66.25-3.17.25-4.53Zm-6.45-.24c0 .7-.04 1.6-.1 2.69-.07 1.09-.19 2.25-.37 3.49-.18 1.24-.43 2.47-.76 3.69a15.27 15.27 0 0 1-1.28 3.33c-.53.99-1.17 1.8-1.92 2.43-.75.62-1.64.93-2.67.93-.84 0-1.58-.25-2.21-.75-.62-.5-1.15-1.16-1.59-1.98-.43-.82-.79-1.72-1.08-2.71-.28-1-.51-2-.67-3-.16-1.01-.27-1.95-.33-2.84-.05-.88-.08-1.61-.08-2.18 0-.68.03-1.57.08-2.65.06-1.09.17-2.25.35-3.49.18-1.24.43-2.48.75-3.72.33-1.23.76-2.36 1.29-3.36.53-1.01 1.17-1.83 1.92-2.47.75-.64 1.65-.96 2.71-.96.87 0 1.63.25 2.27.75.63.51 1.17 1.17 1.61 1.98.43.82.79 1.73 1.06 2.74.27 1 .48 2.01.63 3.02.15 1 .25 1.96.31 2.85.05.9.08 1.64.08 2.21ZM151.88.08v-6.77l-5.39.16.65-52.56-14.93-.24v7.02h7.34v13.3c-.65-1.06-1.55-1.92-2.71-2.59-1.16-.67-2.37-1-3.65-1-1.66 0-3.13.36-4.41 1.08-1.28.72-2.39 1.68-3.33 2.88-.93 1.19-1.72 2.55-2.36 4.08-.64 1.52-1.16 3.09-1.55 4.69-.4 1.61-.68 3.19-.84 4.75-.16 1.57-.24 2.98-.24 4.23 0 1.25.05 2.64.16 4.16s.31 3.07.59 4.65c.29 1.58.69 3.12 1.23 4.61.53 1.5 1.22 2.83 2.08 4 .85 1.17 1.89 2.11 3.1 2.82 1.21.7 2.66 1.06 4.34 1.06 1.72 0 3.32-.42 4.82-1.27 1.49-.84 2.69-2 3.59-3.47l.57 4.74Zm-12.57-30.11-.17 17.38c-.21.54-.52 1.14-.91 1.8-.4.65-.85 1.27-1.37 1.85-.52.59-1.09 1.08-1.71 1.47-.63.4-1.28.59-1.96.59-.9 0-1.65-.28-2.25-.83-.6-.56-1.09-1.29-1.47-2.19-.38-.89-.67-1.89-.87-3-.21-1.1-.35-2.19-.43-3.26-.08-1.07-.12-2.07-.12-3v-2.24c0-.63.03-1.4.1-2.31.07-.91.18-1.88.34-2.9.17-1.02.41-2.04.72-3.06s.7-1.93 1.16-2.75c.46-.82 1.03-1.48 1.7-2 .66-.52 1.44-.78 2.34-.78.6 0 1.16.19 1.69.56.54.36 1.01.81 1.43 1.34.42.53.79 1.1 1.08 1.7.3.59.53 1.14.7 1.63Zm41.05 7.83c0-1.28-.08-2.68-.25-4.2-.16-1.52-.43-3.04-.81-4.55-.38-1.51-.88-2.97-1.49-4.39-.61-1.41-1.39-2.66-2.33-3.75-.94-1.09-2.04-1.96-3.3-2.61-1.27-.66-2.73-.98-4.39-.98-1.82 0-3.41.38-4.77 1.14-1.36.76-2.54 1.78-3.53 3.04-1 1.27-1.83 2.71-2.49 4.35a31.39 31.39 0 0 0-1.59 5.04c-.4 1.72-.68 3.43-.84 5.12-.16 1.68-.25 3.21-.25 4.57 0 1.3.08 2.72.23 4.24.15 1.52.41 3.03.77 4.53.37 1.5.87 2.94 1.49 4.33.63 1.38 1.4 2.6 2.33 3.65.92 1.04 2.03 1.89 3.3 2.53 1.28.64 2.77.96 4.45.96 1.8 0 3.37-.38 4.72-1.15 1.34-.76 2.52-1.76 3.52-3.02 1.01-1.25 1.85-2.68 2.51-4.3a33.66 33.66 0 0 0 1.62-4.98c.4-1.7.69-3.38.85-5.04.17-1.66.25-3.17.25-4.53Zm-6.45-.24c0 .7-.03 1.6-.1 2.69-.07 1.09-.19 2.25-.37 3.49-.18 1.24-.43 2.47-.75 3.69-.33 1.23-.76 2.33-1.29 3.33-.53.99-1.17 1.8-1.92 2.43-.74.62-1.64.93-2.67.93-.84 0-1.58-.25-2.2-.75-.63-.5-1.16-1.16-1.59-1.98-.44-.82-.8-1.72-1.09-2.71-.28-1-.51-2-.67-3-.16-1.01-.27-1.95-.33-2.84-.05-.88-.08-1.61-.08-2.18 0-.68.03-1.57.08-2.65.06-1.09.17-2.25.35-3.49.18-1.24.43-2.48.76-3.72.32-1.23.75-2.36 1.28-3.36.53-1.01 1.17-1.83 1.92-2.47.75-.64 1.65-.96 2.71-.96.87 0 1.63.25 2.27.75.64.51 1.17 1.17 1.61 1.98.43.82.79 1.73 1.06 2.74.27 1 .48 2.01.63 3.02.15 1 .25 1.96.31 2.85.05.9.08 1.64.08 2.21Zm22.69-28.89c0-.71-.14-1.38-.41-2a5.15 5.15 0 0 0-1.1-1.63c-.46-.47-1.01-.83-1.63-1.11-.63-.27-1.3-.4-2-.4-.71 0-1.38.13-2 .4-.63.28-1.17.64-1.63 1.11-.47.46-.83 1-1.11 1.63-.27.62-.4 1.29-.4 2 0 .7.13 1.37.4 2 .28.62.64 1.17 1.11 1.63.46.46 1 .83 1.63 1.1.62.27 1.29.41 2 .41.7 0 1.37-.14 2-.41.62-.27 1.17-.64 1.63-1.1.46-.46.83-1.01 1.1-1.63.27-.63.41-1.3.41-2Zm3.43 45.62-4.41-.41.98-35.42h-13.14l-.16 7.1h4.97v27.5l-3.42.25v7.1l14.93.65Zm13.38 1.06c0-.71-.14-1.38-.41-2.02-.27-.64-.64-1.2-1.12-1.67-.48-.48-1.03-.85-1.67-1.13-.64-.27-1.32-.4-2.02-.4-.71 0-1.38.13-2 .4-.63.28-1.17.65-1.63 1.13-.47.47-.83 1.03-1.11 1.67-.27.64-.4 1.31-.4 2.02s.13 1.37.4 2c.28.62.64 1.17 1.11 1.63.46.46 1 .83 1.63 1.1.62.27 1.29.41 2 .41.7 0 1.38-.14 2.02-.41a5.45 5.45 0 0 0 1.67-1.1c.48-.46.85-1.01 1.12-1.63.27-.63.41-1.29.41-2Zm42.15-54.27-7.18-.17-.08 6.7c-1.31-2.13-2.83-3.78-4.57-4.98-1.74-1.2-3.89-1.8-6.45-1.8-2.53 0-4.77.46-6.73 1.37-1.96.91-3.66 2.13-5.1 3.65a20.558 20.558 0 0 0-3.61 5.31 35.52 35.52 0 0 0-2.33 6.34c-.58 2.22-1.01 4.47-1.26 6.75-.26 2.29-.39 4.47-.39 6.53 0 1.83.14 3.83.43 6.02.28 2.19.74 4.39 1.36 6.59.63 2.21 1.43 4.33 2.41 6.39.98 2.05 2.17 3.87 3.57 5.47 1.4 1.59 3.03 2.86 4.88 3.81 1.85.95 3.94 1.43 6.28 1.43 3.05 0 5.68-.62 7.9-1.86 2.21-1.23 4.04-2.87 5.49-4.91 1.44-2.04 2.5-4.38 3.2-7.02.69-2.64 1.04-5.36 1.04-8.16h-6.45c-.13 1.68-.4 3.38-.79 5.08-.4 1.7-1.02 3.23-1.86 4.61-.84 1.37-1.94 2.49-3.29 3.36-1.34.87-3.01 1.31-4.99 1.31-1.64 0-3.05-.39-4.25-1.18-1.19-.79-2.22-1.82-3.08-3.08-.86-1.27-1.56-2.71-2.1-4.33a38.72 38.72 0 0 1-1.29-4.92 42.68 42.68 0 0 1-.63-4.83c-.11-1.57-.16-2.93-.16-4.1 0-1.25.06-2.68.18-4.27.12-1.59.35-3.2.68-4.83.32-1.63.78-3.23 1.36-4.8.59-1.56 1.33-2.96 2.23-4.18.89-1.22 1.98-2.2 3.24-2.94 1.27-.73 2.75-1.1 4.47-1.1 1.14 0 2.18.2 3.1.59.92.4 1.75.93 2.49 1.59.73.67 1.37 1.45 1.92 2.33.54.88 1.01 1.82 1.4 2.8.4.97.73 1.98.98 3.01.26 1.04.47 2.03.64 2.98l6.44.25Zm37.66 42.35-6.85-.4-.41 9.22-13.63-.33.41-41.78 5.79-.25v-7.26h-17.7l-.25 7.51h4.82l-.09 41.78-5.06-.16.41 7.91 32.16.41Zm21.35 8.49-5.72.16.41-41.7 4.73-.41-.65-7.34h-16.16l-.41 7.91 5.06-.16.09 41.7h-4.82l.25 7.59 16.81-.4Zm42.31-50.84-7.18-.17-.08 6.7c-1.31-2.13-2.83-3.78-4.57-4.98-1.74-1.2-3.89-1.8-6.45-1.8-2.53 0-4.77.46-6.73 1.37-1.96.91-3.66 2.13-5.1 3.65-1.45 1.53-2.65 3.29-3.62 5.31a35.49 35.49 0 0 0-2.32 6.34c-.59 2.22-1.01 4.47-1.27 6.75-.25 2.29-.38 4.47-.38 6.53 0 1.83.14 3.83.42 6.02.29 2.19.75 4.39 1.37 6.59.63 2.21 1.43 4.33 2.41 6.39.98 2.05 2.17 3.87 3.57 5.47 1.4 1.59 3.03 2.86 4.88 3.81 1.85.95 3.94 1.43 6.28 1.43 3.05 0 5.68-.62 7.9-1.86 2.21-1.23 4.04-2.87 5.48-4.91 1.45-2.04 2.51-4.38 3.21-7.02.69-2.64 1.04-5.36 1.04-8.16h-6.45c-.14 1.68-.4 3.38-.8 5.08-.39 1.7-1.01 3.23-1.85 4.61-.85 1.37-1.94 2.49-3.29 3.36-1.34.87-3.01 1.31-5 1.31-1.63 0-3.04-.39-4.24-1.18-1.2-.79-2.22-1.82-3.08-3.08-.86-1.27-1.56-2.71-2.1-4.33-.55-1.62-.97-3.26-1.29-4.92a42.68 42.68 0 0 1-.63-4.83c-.11-1.57-.16-2.93-.16-4.1 0-1.25.06-2.68.18-4.27.12-1.59.35-3.2.67-4.83.33-1.63.79-3.23 1.37-4.8.59-1.56 1.33-2.96 2.23-4.18.89-1.22 1.97-2.2 3.24-2.94 1.26-.73 2.75-1.1 4.47-1.1 1.14 0 2.17.2 3.1.59.92.4 1.75.93 2.49 1.59.73.67 1.37 1.45 1.92 2.33.54.88 1.01 1.82 1.4 2.8.4.97.72 1.98.98 3.01.26 1.04.47 2.03.64 2.98l6.44.25Zm44.44.73-17.39-.41-.49 7.1 5.15.66-14.69 18.77.16-17.55 4.73-.41-.65-7.34h-16.16l-.41 7.91 5.06-.16.08 41.7h-4.81l.24 7.59 16.82-.4.4-7.35-5.71.16.16-20.15 14.12 21.46h-4.81l.65 7.51 16.81-.82-.41-7.34-4.48.24-15.51-23.01 16.24-20.4h4.24Z" fill="currentColor"/>
</svg>
